<svg version="1.2" xmlns="http://www.w3.org/2000/svg" viewBox="0 0 1024 1024" width="512" height="512">
	<title>favicon-svg</title>
	<defs>
		<linearGradient id="g1" x1="17.8" y1="512.5" x2="1007.1" y2="512.5" gradientUnits="userSpaceOnUse">
			<stop offset="0" stop-color="#4caf50"/>
			<stop offset="1" stop-color="#31dcff"/>
		</linearGradient>
	</defs>
	<style>
		.s0 { fill: url(#g1) } 
	</style>
	<g id="SvgjsG1431">
		<g id="Layer">
			<path id="Layer" fill-rule="evenodd" class="s0" d="m972.5 604.8c-56.1 35.1-124.5 26.3-184.2 9.7-35-9.7-69.2-21.1-104.3-30.7-38.6-10.6-55.3-1.8-91.2 14.9-13.2 6.1-72.8 24.5-76.3 40.3-4.4 17.6 39.5 40.4 50.9 48.2 50.8 36.9 109.6 72.8 173.6 72.8-6.1-21-12.3-23.6 8.8-31.5 9.6-4.4 21.9-1.8 30.7 2.6 18.4 7.9 32.4 35.1 28.9 56.1-6.1 44.7-80.7 23.7-108.7 15.8-65.8-17.5-117.6-56.1-171.9-94.7-21.9-15.8-47.4-41.2-76.3-40.3-33.3 1.7-57.9 18.4-94.7 14-29-3.5-54.4-22.8-83.3-26.3-29-3.5-39.5-2.7-66.7-18.4-40.3-23.7-60.5-81.6 0.9-93 71-14 136.8 12.3 199.1 41.2 33.3 14.9 45.6 10.5 79.8-3.5 34.2-14.9 67.5-30.7 100.8-45.6q-53.5-39.4-106.1-78c-28.1-20.2-60.5-55.3-93.8-58.8-37.7-3.5-83.3 10.5-120.2 15.8-42.9 5.3-88.5 14.9-131.5 13.2-46.5-0.9-127.1-37.7-118.4-97.4 4.4-32.4 53.5-42.1 81.6-47.3 42.9-7.9 84.2-0.9 126.2 7 42.1 7.9 84.2 15.8 123.7 33.3 15.8 7 33.3 21.1 49.1 23.7 20.2 4.4 50-11.4 69.3-17.6 87.7-29.8 174.5-59.6 262.2-87.6 68.4-21.1 149-56.2 213.1-9.7 15.7 11.4 44.7 33.3 39.4 56.1-9.6 37.7-43.8 7-53.5-8.7-16.6-23.7-18.4-37.7-50-33.4-48.2 5.3-98.2 26.3-145.5 40.4-96.5 28.9-192.1 60.5-287.6 93.8 53.4 36 106.9 71.9 161.3 107 33.3 21.9 47.4 16.7 85.1 7 34.2-9.6 69.2-19.3 104.3-27.2 51.8-11.4 129.8-21.9 176.3 10.5 44.7 29.9 45.6 97.4-0.9 126.3zm-627.9-234.1c1.8-25.4-42.9-29.8-65.7-37.7-28.1-8.8-57-17.6-86-20.2-29.8-2.6-142-7.9-144.7 36.8-1.7 41.3 92.1 52.7 120.2 51.8 58.7-2.7 118.4-19.3 176.2-30.7zm40.4 248.1c4.4-24.5-71.1-35.9-93.9-41.2-25.4-5.2-73.6-21.9-92.9 7.9-21.1 32.5 39.4 38.6 63.1 42.1 41.2 7 84.2 4.4 123.7-8.8zm500.7-127.1c-60.5 5.3-119.3 26.3-178 41.2 0 16.7-2.7 13.2 7.9 21.9 9.6 7 30.7 8.8 42.9 12.3 28.1 7.9 56.2 16.7 86 21.1 37.7 4.3 123.6 9.6 137.6-40.4 14.1-50.8-64-58.7-96.4-56.1z"/>
		</g>
	</g>
</svg>