<svg version="1.2" xmlns="http://www.w3.org/2000/svg" viewBox="0 0 863 224" width="863" height="224"><defs><linearGradient id="P" gradientUnits="userSpaceOnUse"/><linearGradient id="g1" x1="8.4" y1="112.5" x2="280.9" y2="112.5" href="#P"><stop stop-color="#4caf50"/><stop offset="1" stop-color="#31dcff"/></linearGradient></defs><style>.a{fill:#e1fefc}.b{fill:url(#g1)}</style><path fill-rule="evenodd" class="a" d="m402 90.1l-46.8 57.5h58.4v15.9h-84v-13.5l49.5-59.9zm-70.6-29.2h82.2v15.9h-82.2zm112.1 0h76.8v16.4h-76.8zm0 86.2h76.6v16.5h-76.6zm0-43.7h69.3v16.1h-69.3zm171 59.9l-25.4-35.7h-22.4v35.7h-17.9v-51.7h44.2q9.9 0 15.7-4.8 5.5-4.3 5.5-12.3 0-8.7-5.5-13-5.8-4.4-15.7-4.4h-44.2v-16.2h45.6q8.5 0 16 2.2 7.2 2.4 12 6.5 4.9 4.4 7.5 10.2 2.7 6 2.7 13.5 0 6.5-1.9 11.6-1.7 4.8-5.1 8.9-2.9 3.6-7.7 6.8-4.4 2.4-9.9 4.1l27.7 38.6zm130.9-102.6v57.7q0 11.4-3.1 19.8-2.9 8.2-8.7 14.5-5.8 5.6-13.8 8.2-3.8 1.7-8.9 2.2v-16.7q6.3-1.9 10.1-6 6.8-7 6.8-21.3v-58.4zm-67.9 0.2v58.5q0 13.7 7 21.2 4.1 4.1 10.2 5.8v16.9q-3.6-0.2-9.2-2.2-8.2-2.8-13.5-8.4-6.1-5.8-9-14.3-2.9-7.7-2.9-19.8v-57.7zm176.1 0v16.2h-27q-8 0-14.8 2.7-5.8 2.4-11.1 7.2-4.6 5.1-7.2 11.4-2 4.5-2.2 11.8v6.5h-19.1v-6.5q0.5-9.9 3.9-18.4 4.1-9.9 11.1-16.4 7.5-6.7 17.4-10.6 10.1-3.9 22-3.9zm0 48.3v4.1q0 10.4-3.9 19.1-3.6 8.7-11.1 16.4-7.3 6.8-17.4 10.7-9.9 3.8-22 3.8h-27v-16.4h27q8 0 14.7-2.4 6.6-2.7 11.4-7.5 4.1-4.1 7-10.9 2.2-5.8 2.7-12.8h-0.3v-4.1z"/><path fill-rule="evenodd" class="b" d="m271.4 137.9c-15.5 9.7-34.3 7.2-50.8 2.7-9.6-2.7-19-5.8-28.7-8.5-10.6-2.9-15.2-0.5-25.1 4.1-3.6 1.7-20.1 6.8-21 11.1-1.2 4.9 10.8 11.1 14 13.3 14 10.1 30.2 20 47.8 20-1.7-5.7-3.4-6.5 2.4-8.6 2.7-1.3 6-0.5 8.5 0.7 5 2.2 8.9 9.6 7.9 15.4-1.7 12.4-22.2 6.6-29.9 4.4-18.1-4.8-32.4-15.5-47.3-26.1-6.1-4.3-13.1-11.4-21.1-11.1-9.1 0.5-15.9 5.1-26 3.9-8-1-15-6.3-23-7.3-8-1-10.9-0.7-18.3-5.1-11.1-6.5-16.7-22.4 0.2-25.6 19.6-3.8 37.7 3.4 54.8 11.4 9.2 4.1 12.6 2.9 22-1 9.4-4.1 18.6-8.4 27.8-12.5q-14.8-10.9-29.2-21.5c-7.8-5.6-16.7-15.2-25.9-16.2-10.4-1-22.9 2.9-33.1 4.3-11.8 1.5-24.4 4.1-36.2 3.7-12.8-0.3-35-10.4-32.6-26.8 1.2-9 14.7-11.6 22.5-13.1 11.8-2.2 23.1-0.2 34.7 1.9 11.6 2.2 23.2 4.4 34.1 9.2 4.3 2 9.2 5.8 13.5 6.5 5.6 1.2 13.8-3.1 19.1-4.8 24.1-8.2 48-16.4 72.2-24.1 18.8-5.8 41.1-15.5 58.7-2.7 4.3 3.1 12.3 9.2 10.8 15.5-2.6 10.3-12 1.9-14.7-2.5-4.6-6.5-5.1-10.3-13.7-9.1-13.3 1.4-27.1 7.2-40.1 11.1-26.6 7.9-52.9 16.6-79.2 25.8 14.7 9.9 29.4 19.8 44.4 29.5 9.2 6 13 4.6 23.4 1.9 9.4-2.6 19.1-5.3 28.8-7.5 14.2-3.1 35.7-6 48.5 2.9 12.3 8.2 12.6 26.8-0.2 34.8zm-173-64.5c0.5-7-11.8-8.2-18.1-10.4-7.7-2.4-15.7-4.8-23.6-5.5-8.3-0.7-39.2-2.2-39.9 10.1-0.5 11.4 25.4 14.5 33.1 14.3 16.2-0.8 32.6-5.3 48.5-8.5zm11.1 68.4c1.3-6.8-19.5-9.9-25.8-11.4-7-1.4-20.3-6-25.6 2.2-5.8 8.9 10.9 10.6 17.4 11.6 11.3 1.9 23.2 1.2 34-2.4zm137.9-35.1c-16.6 1.5-32.8 7.3-49 11.4 0 4.6-0.7 3.6 2.2 6 2.6 2 8.4 2.5 11.8 3.4 7.8 2.2 15.5 4.6 23.7 5.8 10.4 1.2 34 2.7 37.9-11.1 3.9-14-17.6-16.2-26.6-15.5z"/></svg>