<svg version="1.2" xmlns="http://www.w3.org/2000/svg" viewBox="0 0 512 101" width="512" height="512">
	<title>logo-name-svg</title>
	<style>
		.s0 { fill: #e1fefc } 
	</style>
	<g id="SvgjsG1432">
		<path id="Layer" fill-rule="evenodd" class="s0" d="m104.4 32.5l-37.4 45.9h46.6v12.7h-67v-10.8l39.5-47.8zm-56.3-23.3h65.5v12.7h-65.5zm89.4 0h61.3v13.1h-61.3zm0 68.8h61.1v13.1h-61.1zm0-34.9h55.3v12.9h-55.3zm136.4 47.8l-20.2-28.5h-18v28.5h-14.2v-41.2h35.2q7.9 0 12.6-3.9 4.4-3.4 4.4-9.8 0-6.9-4.4-10.4-4.7-3.5-12.6-3.5h-35.2v-12.9h36.4q6.7 0 12.7 1.8 5.8 1.9 9.6 5.2 3.9 3.4 6 8.1 2.1 4.8 2.1 10.8 0 5.2-1.5 9.2-1.4 3.9-4.1 7.1-2.3 2.9-6.1 5.4-3.5 1.9-7.9 3.3l22.1 30.8zm104.4-81.9v46.1q0 9-2.5 15.8-2.3 6.5-6.9 11.5-4.6 4.5-11 6.6-3.1 1.3-7.1 1.7v-13.3q5-1.5 8.1-4.8 5.4-5.6 5.4-16.9v-46.7zm-54.2 0.2v46.7q0 10.9 5.6 16.9 3.3 3.3 8.1 4.6v13.5q-2.9-0.2-7.3-1.7-6.5-2.3-10.8-6.8-4.8-4.6-7.1-11.3-2.3-6.2-2.3-15.8v-46.1zm140.4 0v12.9h-21.6q-6.3 0-11.7 2.2-4.6 1.9-8.9 5.7-3.6 4.1-5.8 9.1-1.5 3.7-1.7 9.4v5.2h-15.2v-5.2q0.4-7.9 3.1-14.6 3.2-7.9 8.8-13.1 6-5.4 13.9-8.5 8.1-3.1 17.5-3.1zm0 38.6v3.2q0 8.3-3.1 15.3-2.8 6.9-8.8 13.1-5.8 5.3-13.9 8.4-7.9 3.1-17.5 3.1h-21.6v-13.1h21.6q6.3 0 11.7-1.9 5.2-2.1 9.1-6 3.3-3.3 5.6-8.7 1.7-4.6 2.1-10.2h-0.2v-3.2z"/>
	</g>
	<g id="SvgjsG1432">
	</g>
</svg>