<?xml version="1.0" standalone="no"?>
<!DOCTYPE svg PUBLIC "-//W3C//DTD SVG 20010904//EN"
 "http://www.w3.org/TR/2001/REC-SVG-20010904/DTD/svg10.dtd">
<svg version="1.0" xmlns="http://www.w3.org/2000/svg"
 width="700.000000pt" height="700.000000pt" viewBox="0 0 700.000000 700.000000"
 preserveAspectRatio="xMidYMid meet">
<metadata>
Created by potrace 1.14, written by Peter Selinger 2001-2017
</metadata>
<g transform="translate(0.000000,700.000000) scale(0.100000,-0.100000)"
fill="#000000" stroke="none">
<path d="M5878 5565 c-2 -2 -34 -6 -71 -10 -37 -3 -78 -8 -90 -11 -12 -2 -38
-7 -57 -10 -64 -10 -258 -63 -423 -115 -614 -195 -1933 -637 -2197 -736 -246
-93 -308 -89 -518 31 -119 68 -181 95 -315 140 -192 64 -416 115 -792 180
-351 61 -554 64 -807 10 -261 -55 -406 -131 -463 -243 -23 -45 -27 -160 -9
-231 48 -181 249 -355 516 -444 140 -47 199 -55 403 -51 105 2 204 6 220 8 17
3 55 8 85 11 30 4 66 9 80 11 14 2 45 7 70 10 25 3 74 11 110 16 36 6 85 12
110 15 25 3 57 7 73 9 46 8 80 14 127 20 24 4 47 8 51 10 3 2 21 7 40 10 19 3
79 14 134 24 55 11 120 23 145 26 25 4 54 10 65 12 11 3 85 7 165 9 160 4 196
-2 303 -57 77 -39 129 -75 286 -202 122 -98 347 -267 714 -535 l188 -137 -63
-30 c-122 -57 -277 -128 -518 -235 -401 -178 -430 -178 -820 3 -232 107 -521
194 -743 223 -125 16 -342 6 -466 -20 -158 -34 -242 -115 -247 -239 -5 -122
74 -260 206 -358 81 -61 215 -120 300 -134 19 -3 46 -7 60 -10 14 -2 52 -7 85
-10 104 -11 191 -35 340 -95 79 -32 175 -66 212 -76 103 -27 241 -23 383 11
228 55 286 66 345 65 61 0 67 -1 120 -15 62 -16 165 -79 316 -193 445 -335
794 -548 1059 -645 85 -32 215 -73 259 -82 9 -2 44 -11 78 -20 180 -47 358
-57 460 -25 89 27 142 97 147 194 11 209 -159 402 -343 389 -60 -4 -149 -46
-160 -75 -5 -15 -2 -41 12 -81 10 -32 17 -61 14 -64 -22 -21 -240 11 -392 58
-71 22 -237 90 -290 119 -16 9 -55 29 -85 45 -55 29 -341 212 -350 224 -3 4
-66 46 -140 93 -379 244 -365 314 98 495 64 25 172 69 239 99 176 78 257 98
364 91 99 -6 135 -15 449 -109 245 -73 462 -136 493 -143 10 -2 27 -7 37 -10
31 -10 179 -40 245 -49 23 -4 52 -9 65 -12 14 -2 93 -7 175 -9 165 -5 301 10
420 45 39 12 79 24 90 28 31 9 166 82 203 109 133 100 205 243 205 408 0 309
-250 532 -642 572 -120 13 -426 5 -491 -12 -8 -2 -37 -7 -65 -10 -136 -17
-386 -76 -788 -186 -303 -83 -366 -97 -447 -100 -98 -3 -171 25 -339 132 -200
127 -1050 693 -1051 699 0 3 15 11 33 18 95 37 1265 424 1517 502 512 158 551
170 750 235 322 105 487 148 623 162 184 20 218 3 325 -155 111 -164 212 -251
290 -252 97 -1 156 144 103 253 -30 61 -107 144 -201 216 -141 108 -254 159
-399 182 -65 10 -217 19 -223 14z m-4653 -699 c66 -3 131 -8 144 -10 12 -3 42
-7 65 -10 67 -8 210 -43 386 -96 91 -26 215 -63 275 -80 172 -49 249 -101 257
-174 l3 -29 -200 -43 c-193 -42 -313 -67 -365 -78 -14 -3 -36 -8 -50 -11 -48
-10 -315 -54 -370 -60 -30 -3 -77 -8 -105 -11 -62 -8 -229 -7 -281 0 -21 3
-56 8 -77 11 -277 34 -514 142 -562 258 -45 109 16 209 163 266 112 44 204 59
417 67 83 4 152 8 153 10 2 1 9 1 15 -1 7 -2 66 -6 132 -9z m5120 -1240 c17
-4 50 -12 74 -17 133 -30 247 -104 287 -187 51 -108 -9 -270 -129 -346 -128
-82 -254 -110 -507 -110 -228 -1 -382 19 -588 75 -40 11 -82 22 -93 24 -11 2
-57 15 -102 29 -77 23 -180 49 -243 60 -74 14 -140 42 -174 75 -32 31 -36 41
-35 79 1 23 4 44 6 47 3 2 170 49 373 104 353 97 593 152 721 166 33 4 62 9
64 11 6 6 314 -3 346 -10z m-4613 -520 c21 -3 91 -17 155 -32 65 -14 127 -28
138 -30 11 -2 30 -6 43 -9 12 -3 34 -7 50 -10 325 -64 522 -155 510 -237 -2
-17 -16 -25 -68 -40 -36 -10 -76 -20 -90 -23 -14 -3 -36 -7 -50 -10 -215 -45
-427 -41 -760 15 -175 29 -281 71 -317 127 -41 62 7 171 97 218 69 37 171 47
292 31z"/>
</g>
</svg>
